PathFileType	3	(X/Y/Z)	D:\minhoCalibration\240510\subject1_KPNP\preferred\preferred12.trc
DataRate	CameraRate	NumFrames	NumMarkers	Units	OrigDataRate	OrigDataStartFrame	OrigNumFrames
200.0	200.0	33	10	mm	200.0	368	280	
Frame#	Time	Left_Ankle_Outer1			Left_Ankle_Inner1			Left_Knee_Outer1			Left_Knee_Inner1			Left_Wrist1			Right_Wrist1			Right_Knee_Inner1			Right_Knee_Outer1			Right_Ankle_Inner1			Right_Ankle_Outer1			
		X1	Y1	Z1	X2	Y2	Z2	X3	Y3	Z3	X4	Y4	Z4	X5	Y5	Z5	X6	Y6	Z6	X7	Y7	Z7	X8	Y8	Z8	X9	Y9	Z9	X10	Y10	Z10	
368	1.83	-434.97351	124.8529	-569.90894	-485.93146	133.31827	-550.37097	-349.27588	548.77319	-417.5466	-460.1149	526.00354	-420.79825	-318.72501	988.44849	-598.76038	-676.68445	1022.9183	-610.75763	-759.43884	575.95258	-450.19922	-851.95496	630.28143	-515.41284	-684.17926	427.55655	-863.65131	-782.0097	422.42114	-910.17828
369	1.835	-434.75058	126.79906	-569.70044	-485.3688	135.83447	-549.06793	-343.36667	550.96051	-422.57434	-454.57208	528.74805	-421.54416	-315.23462	991.03809	-606.88733	-674.03906	1029.2612	-597.21466	-748.44379	583.89069	-427.22357	-845.80469	638.4079	-487.12021	-687.7561	448.18018	-845.85876	-786.60541	444.42432	-890.89587
370	1.84	-434.63971	129.02869	-569.51831	-484.77747	138.42908	-547.45105	-337.71237	553.48187	-427.54807	-448.70508	531.70502	-422.89334	-313.0712	993.67004	-615.15973	-670.36267	1035.3282	-584.92773	-736.36475	592.64734	-404.52957	-838.11383	647.3587	-458.53561	-691.98199	469.13724	-827.53937	-791.8399	468.15356	-869.67285
371	1.845	-434.78052	131.26608	-569.13892	-484.27545	141.11722	-545.71362	-332.08307	556.04761	-432.55072	-442.57028	534.45636	-424.29706	-311.15359	996.65833	-623.58258	-666.14203	1041.5291	-572.7005	-722.91284	602.22437	-381.866	-828.69958	656.74634	-429.86237	-697.0957	491.19382	-808.50513	-799.90424	491.0574	-846.58118
372	1.85	-434.98764	133.68407	-568.6958	-483.8371	144.08327	-543.8009	-326.61011	558.6593	-437.55655	-436.84714	537.28998	-425.0007	-309.96768	999.60876	-631.94312	-661.72559	1048.3593	-561.30969	-708.41083	612.6438	-359.58008	-817.60724	667.04205	-401.14783	-702.92792	513.60193	-788.55701	-807.53876	513.38208	-821.28607
373	1.855	-435.27664	136.3093	-568.34839	-483.51642	147.09036	-541.9126	-321.15344	561.32147	-442.56613	-430.80234	540.72852	-425.31561	-309.36011	1002.4617	-640.44305	-655.54089	1055.1089	-551.07434	-693.11145	623.91217	-337.68582	-804.88354	678.336	-372.53043	-709.24426	536.71753	-767.90344	-815.41766	536.79987	-794.86603
374	1.86	-435.81598	138.96083	-567.95117	-483.25342	150.31752	-539.81415	-315.56299	563.97986	-447.61734	-424.73956	543.95142	-425.71677	-309.30994	1005.1811	-649.0686	-650.31873	1061.7247	-541.34155	-676.86017	635.99738	-316.31644	-790.90308	690.48956	-344.651	-714.99805	560.26019	-746.52948	-822.38818	560.68475	-767.56152
375	1.865	-436.67294	141.63072	-567.37543	-483.58881	153.23671	-537.04443	-310.77457	566.28668	-452.68112	-417.61404	546.66992	-427.68027	-310.1308	1007.566	-657.38251	-644.62933	1068.7299	-532.44885	-659.77423	648.85925	-295.46661	-774.84821	703.77148	-317.08832	-723.28058	583.12836	-723.03784	-831.57837	584.47681	-737.80066
376	1.87	-437.78592	144.23558	-566.99597	-482.96225	156.56898	-534.91357	-305.30203	568.53198	-457.83594	-411.96844	549.42218	-427.7131	-310.67102	1010.0483	-666.30579	-638.44836	1075.3678	-524.61853	-641.76459	662.40454	-275.3093	-757.95459	718.05017	-290.65387	-728.93524	606.56024	-699.97522	-838.56207	607.76794	-708.70099
377	1.875	-439.41422	146.46503	-566.05261	-482.561	159.38409	-531.80438	-300.42709	570.46429	-462.98987	-405.35312	552.1922	-428.26343	-312.12268	1011.9979	-674.88269	-632.43884	1082.5498	-516.87347	-622.92303	676.26794	-256.58511	-739.88416	733.36975	-264.85379	-737.12872	628.49829	-674.11401	-847.91028	629.96021	-676.7663
378	1.88	-441.18854	148.79382	-565.47284	-482.75461	162.14972	-529.32703	-295.39709	572.46777	-468.28763	-398.63382	554.72107	-428.28461	-313.98029	1013.7548	-683.36426	-625.99683	1088.7267	-510.31058	-603.27905	690.62451	-238.69363	-720.22723	750.09546	-240.0237	-744.71552	649.60425	-647.49854	-853.88892	653.78107	-644.71362
379	1.885	-442.84644	151.27956	-565.18121	-483.16199	164.65849	-527.06519	-291.40289	573.79089	-473.65778	-392.10321	556.89691	-428.91943	-316.52798	1015.2174	-691.63531	-619.75403	1095.4686	-503.57526	-583.62744	705.96094	-220.97333	-699.2663	767.23041	-216.67944	-752.02045	670.25061	-619.85858	-859.02887	677.23218	-611.48175
380	1.89	-444.7999	153.22383	-564.49005	-483.83392	166.91806	-524.38202	-287.64371	574.92462	-479.18918	-385.73819	558.58636	-429.427	-319.22879	1016.4968	-699.98474	-613.25439	1101.9274	-497.63272	-562.74042	720.88312	-205.96887	-676.29199	785.72583	-194.76286	-759.27411	689.68262	-591.09033	-864.25311	699.02606	-577.14337
381	1.895	-446.98679	154.9843	-563.50568	-484.3381	168.89203	-521.80927	-284.64679	575.66876	-484.67636	-380.2334	559.74451	-429.70163	-323.01971	1017.4879	-707.47412	-607.16437	1108.2987	-491.96378	-541.34088	735.9032	-192.06732	-652.1991	805.19293	-173.64558	-766.12982	708.2085	-561.26019	-869.64294	721.86597	-539.68457
382	1.9	-449.15897	156.33199	-562.3338	-485.13	170.43362	-519.31049	-282.52103	576.01831	-489.78339	-374.6626	560.60614	-430.38159	-327.3183	1018.0698	-714.38251	-600.68225	1114.7601	-486.53726	-519.73016	751.03827	-179.67621	-626.42841	824.53284	-155.09317	-772.58423	725.41052	-530.43201	-873.58075	745.40332	-498.6994
383	1.905	-451.42511	157.41618	-560.96259	-485.97574	171.58231	-516.67706	-281.00537	576.1181	-494.86758	-370.05499	561.11615	-431.00153	-332.34686	1018.2952	-720.69971	-594.0639	1120.3105	-481.78555	-498.1795	766.26477	-168.849	-599.30164	844.4939	-138.52937	-779.52374	741.74127	-496.48187	-876.4696	766.29498	-459.89969
384	1.91	-453.96997	157.93936	-559.11945	-487.0979	172.43825	-513.96014	-280.19049	575.87286	-499.53973	-365.66595	561.31915	-432.87036	-338.10275	1017.9851	-726.15009	-587.8595	1126.123	-476.82178	-477.19809	781.68719	-159.04323	-571.75397	865.12329	-123.72088	-785.84924	756.51178	-462.23044	-878.31372	787.71332	-417.04834
385	1.915	-456.38232	158.55823	-557.78339	-488.51102	173.22545	-511.26773	-280.11246	575.2605	-503.69638	-363.09262	561.16516	-432.97192	-343.86664	1017.6257	-731.41895	-582.19592	1131.4889	-471.7587	-455.49661	796.52258	-152.19156	-543.15942	885.05438	-112.81937	-790.82941	771.04865	-428.00534	-878.6825	807.5498	-373.88815
386	1.92	-458.96915	158.79985	-556.27625	-490.11932	173.31889	-508.80093	-280.35486	574.57196	-507.34167	-360.44424	560.68115	-434.36884	-350.1731	1016.4799	-735.80078	-575.27863	1137.2943	-468.33298	-435.19147	811.19537	-145.25146	-514.71338	904.76581	-104.09593	-795.06879	785.00745	-391.61566	-877.35162	826.62469	-329.12878
387	1.925	-462.00479	158.95268	-554.58551	-491.9082	173.50752	-506.60974	-281.01764	573.73352	-510.22034	-358.63574	560.70111	-435.40128	-356.67209	1015.0695	-739.56335	-568.9632	1142.8798	-464.58752	-415.78641	825.7832	-139.3553	-486.61591	923.97644	-97.739655	-798.57135	798.2879	-351.61133	-873.93097	845.27515	-282.32047
388	1.93	-464.95203	158.88567	-553.16461	-494.13599	173.47177	-504.55432	-282.14291	572.83716	-512.15253	-358.49106	560.01007	-435.29727	-363.34039	1013.1482	-742.55658	-562.66309	1148.0787	-460.70749	-395.80695	840.47601	-136.0522	-459.26309	942.39594	-93.880455	-800.87537	810.7605	-307.38214	-867.91986	863.2403	-233.99542
389	1.935	-467.98486	158.69243	-551.75122	-496.4339	173.27068	-502.66229	-283.35077	571.86005	-513.52307	-358.8381	559.5943	-435.1358	-369.87946	1010.8809	-744.85382	-556.56653	1153.4558	-457.84314	-377.68399	854.99609	-131.9362	-432.97842	959.80969	-92.052803	-801.06628	822.48999	-259.24673	-858.85022	880.73456	-183.86826
390	1.94	-470.87534	158.38203	-550.36639	-498.9722	173.12361	-501.04941	-284.9585	570.97485	-513.7868	-359.78159	559.10693	-434.75433	-376.37216	1008.2125	-746.77313	-550.0354	1158.5504	-455.64484	-360.54544	869.42596	-128.97061	-408.11557	975.9989	-93.147285	-798.07996	833.70209	-208.05608	-846.14496	897.76086	-132.76372
391	1.945	-473.71048	157.82323	-549.06732	-501.45685	172.30228	-499.12262	-286.90103	570.20721	-513.23828	-361.02002	559.09973	-433.741	-382.88422	1005.2355	-747.7392	-544.56409	1163.6785	-454.13959	-344.10397	883.52759	-126.65315	-385.73254	991.17297	-95.146164	-790.98932	844.80194	-154.86926	-829.51086	914.4278	-81.058357
392	1.95	-476.44391	157.12347	-547.75507	-504.07349	171.60284	-497.78424	-288.77554	569.39874	-512.25421	-363.45499	558.04315	-432.66867	-389.06934	1002.2864	-747.75842	-538.96716	1168.845	-452.17435	-328.97687	897.51605	-125.01031	-365.75574	1005.6404	-98.356552	-779.13043	856.13281	-100.47778	-808.91748	930.8526	-28.120975
393	1.955	-478.97964	156.27663	-546.50818	-506.5481	170.64833	-496.50308	-290.97821	568.65485	-510.75	-365.40253	557.74402	-430.7106	-394.95349	999.20795	-747.65051	-534.03992	1173.2319	-451.58893	-315.13641	911.06647	-124.03129	-348.53107	1018.8947	-102.44872	-762.40692	868.2583	-45.534065	-783.4729	947.67767	24.249529
394	1.96	-481.38992	155.37543	-545.35046	-508.98166	169.55081	-495.35016	-293.30536	567.85712	-508.66	-368.47668	556.93097	-428.57623	-399.93134	996.57776	-747.47687	-529.67133	1177.3574	-451.57782	-302.95169	923.97681	-123.40501	-334.35541	1031.2509	-107.01311	-740.22168	880.10016	10.623096	-754.06427	964.25757	76.833595
395	1.965	-483.59583	154.33902	-544.18719	-511.28101	168.47755	-494.27939	-295.49564	567.11646	-506.16544	-371.22537	555.78766	-427.08511	-404.79108	993.81689	-746.44916	-526.13776	1181.0465	-452.06198	-293.03091	936.44397	-123.30349	-323.42847	1042.692	-111.50652	-712.57196	892.79779	65.860954	-719.52979	980.93311	126.9268
396	1.97	-485.53528	153.24983	-543.25897	-513.38031	166.90839	-493.45139	-297.96494	565.85236	-503.3558	-374.14349	554.84589	-424.89938	-408.98541	991.16724	-745.27533	-523.40704	1184.2325	-452.03281	-286.04803	948.02911	-123.26205	-315.67822	1053.2183	-115.63441	-680.26013	906.52472	118.93897	-680.26398	997.32349	174.86174
397	1.975	-487.30267	152.19865	-542.5108	-515.52838	165.63068	-492.90134	-299.79504	565.06555	-500.36884	-377.19284	553.75653	-422.52353	-412.55331	988.7749	-743.37762	-521.36133	1186.4062	-454.21884	-282.1304	958.71948	-123.0439	-310.97278	1062.7914	-119.02471	-643.45459	920.50311	169.41275	-636.80072	1013.6262	219.66026
398	1.98	-488.99213	151.07011	-541.86444	-517.63568	164.54359	-492.45898	-301.73547	563.90405	-497.14621	-380.76038	552.46234	-419.61511	-415.08652	986.72095	-741.04767	-520.2276	1188.2435	-455.38312	-281.0777	968.73523	-122.7455	-309.24542	1071.58	-121.19414	-600.69183	934.52789	215.93845	-588.66107	1030.5129	261.1535
399	1.985	-490.49521	150.1035	-541.38116	-519.36975	163.08478	-492.21143	-303.54526	562.6571	-493.84299	-382.87671	550.85162	-419.5361	-416.65891	984.81104	-738.44611	-519.78973	1189.647	-456.2218	-281.29379	978.29822	-122.28811	-310.38617	1079.4521	-121.74013	-551.04504	948.70142	256.88177	-536.64294	1046.6754	296.94305
400	1.99	-491.82083	149.2317	-541.00323	-521.1524	161.94061	-492.08951	-305.73676	561.34412	-489.96439	-385.90112	549.98273	-415.95261	-417.55807	982.79352	-735.84784	-520.07422	1190.0781	-457.20407	-283.83731	986.76648	-120.98848	-313.73712	1085.4669	-120.96422	-496.74277	962.48468	291.58459	-480.77396	1062.9293	326.4819
